<?xml version="1.0" encoding="UTF-8" standalone="no"?>
<!-- Created with Inkscape (http://www.inkscape.org/) -->

<svg
   version="1.1"
   id="svg435"
   width="751.98035"
   height="1083.4163"
   viewBox="0 0 751.98035 1083.4162"
   sodipodi:docname="Deer19c.svg"
   inkscape:version="1.2.2 (732a01da63, 2022-12-09, custom)"
   xmlns:inkscape="http://www.inkscape.org/namespaces/inkscape"
   xmlns:sodipodi="http://sodipodi.sourceforge.net/DTD/sodipodi-0.dtd"
   xmlns="http://www.w3.org/2000/svg"
   xmlns:svg="http://www.w3.org/2000/svg">
  <defs
     id="defs439" />
  <sodipodi:namedview
     id="namedview437"
     pagecolor="#ffffff"
     bordercolor="#000000"
     borderopacity="0.25"
     inkscape:showpageshadow="2"
     inkscape:pageopacity="0.0"
     inkscape:pagecheckerboard="0"
     inkscape:deskcolor="#d1d1d1"
     showgrid="false"
     inkscape:zoom="0.73730345"
     inkscape:cx="381.11852"
     inkscape:cy="541.16117"
     inkscape:window-width="1920"
     inkscape:window-height="1031"
     inkscape:window-x="0"
     inkscape:window-y="25"
     inkscape:window-maximized="1"
     inkscape:current-layer="layer2" />
  <g
     inkscape:groupmode="layer"
     id="layer2"
     inkscape:label="Layer 1"
     transform="translate(-33.346304,-12.584162)">
    <path
       style="fill:#000000;stroke-width:1.33333"
       d="m 110.66667,1094.9678 c 0,-1.8652 11.27586,-20.8147 16.84045,-28.3011 2.99795,-4.0333 10.83204,-13.3333 17.40911,-20.6667 23.31241,-25.993 33.99994,-46.4733 43.72135,-83.78249 7.65237,-29.36854 10.52609,-46.83427 8.82041,-53.60815 -1.90416,-7.56212 -1.87658,-38.50673 0.0424,-47.54371 0.8252,-3.88609 3.26608,-10.5795 5.42419,-14.87425 8.72053,-17.35427 9.57099,-23.58194 9.89013,-72.42327 l 0.28903,-44.23191 -7.30413,-8.43432 c -4.01727,-4.63888 -10.06146,-12.46981 -13.43152,-17.40208 -5.65895,-8.28216 -6.69726,-9.13299 -13.58106,-11.12899 -19.17859,-5.5609 -33.80984,-17.11604 -48.11051,-37.99557 C 123.16086,643.60211 120,641.08665 120,646.07871 c 0,4.05123 -2.32021,1.51611 -8.91927,-9.74536 -19.630842,-33.50056 -27.828672,-59.40923 -29.320617,-92.66575 -0.681397,-15.18885 -1.131453,-18.07594 -2.6246,-16.83674 -3.054135,2.5347 -2.410982,-24.02355 0.894827,-36.9509 3.653204,-14.28583 12.586749,-32.07747 23.372,-46.54661 10.21729,-13.70719 15.67941,-24.44286 18.3864,-36.13803 l 1.88364,-8.13803 -10.83619,-4.39961 c -13.85333,-5.62461 -21.758479,-11.03856 -24.494036,-16.7751 -1.722962,-3.61308 -2.955322,-4.54924 -5.988648,-4.54924 -2.100594,0 -5.498833,0.86854 -7.55164,1.9301 -6.137685,3.17392 -15.779575,5.10006 -20.807844,4.15676 -10.711949,-2.00958 -20.623233,-16.40979 -20.647662,-29.99923 -0.04003,-22.2682 21.509268,-35.73133 67.39979,-42.10868 8.02295,-1.11493 17.85582,-2.96756 21.85081,-4.11695 7.21977,-2.07714 23.43296,-9.62338 22.53796,-10.49001 -0.25753,-0.24937 -4.10254,-3.12367 -8.54446,-6.38732 -9.83898,-7.22909 -16.60786,-17.0707 -21.41032,-31.12948 -3.06715,-8.97883 -3.68365,-13.35708 -4.20386,-29.85519 l -0.60962,-19.33333 -7.1786,-10 c -3.948225,-5.5 -11.769428,-15.1 -17.380447,-21.33334 -21.485175,-23.86808 -27.163887,-34.4212 -27.111662,-50.38335 0.03534,-10.80077 2.094473,-15.70659 12.710912,-30.283317 4.272776,-5.866667 10.606655,-15.388478 14.075285,-21.159581 l 6.306599,-10.492915 0.934808,6.233743 c 1.47336,9.825067 0.07845,18.13205 -4.837171,28.80638 -6.003931,13.03761 -6.269516,22.97824 -0.860507,32.20802 2.008094,3.42655 5.46284,7.52018 7.677215,9.09695 l 4.026135,2.86687 10.608783,-9.56368 c 25.18847,-22.70708 31.89417,-34.159648 39.22727,-66.995788 0.94039,-4.210825 5.26576,-5.067403 6.73282,-1.333333 0.5042,1.283333 1.25753,9.082988 1.67408,17.332567 0.9646,19.103434 -1.22607,27.763484 -11.2925,44.641044 -14.7016,24.64899 -19.94992,39.73876 -17.74732,51.02639 2.67805,13.72414 14.49351,38.3215 23.11008,48.11044 l 5.37903,6.1109 4.4648,-13.64635 c 5.40753,-16.5278 17.70204,-40.52001 19.72654,-38.49552 0.81582,0.81583 1.64849,13.16939 2.04772,30.38031 0.78396,33.79706 0.57725,33.19352 14.42341,42.11264 18.79695,12.10818 27.33933,14.44633 37.35155,10.22352 3.59994,-1.51834 4.27173,-2.39743 3.56626,-4.66667 -1.83857,-5.91408 -2.31682,-36.74169 -0.73949,-47.66659 1.53277,-10.61629 7.10699,-29.96013 9.27113,-32.17305 0.56139,-0.57404 1.96211,-0.68247 3.11272,-0.24093 1.77134,0.67973 1.98346,2.7814 1.38374,13.71038 -0.81184,14.79478 1.18178,32.2948 5.15797,45.27663 3.09119,10.09239 5.60651,13.63184 9.68551,13.62905 4.20058,-0.003 28.68008,-18.65206 29.71232,-22.63573 0.48849,-1.88524 -1.25859,-13.97495 -4.0681,-28.15099 -9.60126,-48.44541 -12.64857,-78.29063 -10.30028,-100.880743 2.71983,-26.164201 7.47616,-38.299844 27.53649,-70.25854 9.35188,-14.898752 10.64276,-16.419915 11.66478,-13.745719 0.63206,1.653827 0.89179,7.806959 0.57718,13.673626 -0.48036,8.957324 -1.59552,13.123849 -6.95886,26.000001 -10.02105,24.058302 -12.56209,51.266435 -8.02228,85.898125 3.50536,26.74041 17.1565,72.13436 23.00394,76.49467 3.17205,2.36534 6.59062,1.26554 20.77108,-6.68235 28.20329,-15.80744 54.8867,-37.34655 60.23886,-48.62539 2.96292,-6.24388 2.12246,-15.06383 -3.3433,-35.08505 -3.29328,-12.06339 -4.34898,-19.05786 -4.95028,-32.798252 -0.91659,-20.944537 0.2464,-26.826191 8.80737,-44.54238 3.36844,-6.970679 6.82231,-14.620679 7.67528,-17 1.79087,-4.995599 5.10439,-5.695766 6.27543,-1.32604 1.42051,5.300602 0.89557,22.864759 -1.07587,35.997494 -2.1768,14.50081 -1.22269,25.409862 3.2733,37.426468 5.10274,13.63831 16.78196,28.90937 22.1097,28.90937 3.84924,0 10.91176,-8.28205 15.62215,-18.31972 7.7502,-16.515396 8.36524,-26.292533 3.54347,-56.32973 -2.54166,-15.833202 0.43957,-36.017216 5.31982,-36.017216 1.89518,0 2.81946,1.51972 3.85187,6.333334 0.74709,3.483333 3.74753,13.857193 6.66765,23.053022 10.75378,33.865102 11.88474,59.37802 3.69904,83.44495 -12.66366,37.23274 -39.86642,63.51459 -99.50408,96.13553 -31.30204,17.12176 -39.78203,21.222 -58.66667,28.3665 -9.20169,3.48122 -20.91602,8.43454 -26.03184,11.00738 -5.11582,2.57284 -18.60149,8.70117 -29.96816,13.61853 -11.36667,4.91736 -20.86805,9.13958 -21.1142,9.38268 -0.24613,0.24312 0.95387,1.19658 2.66667,2.11879 1.95653,1.05344 9.062,1.72916 19.1142,1.81773 11.79553,0.10387 17.31312,0.72463 20.99701,2.36199 9.47283,4.21035 9.88303,12.73191 1.01879,21.16425 -9.09576,8.65259 -23.63346,15.55531 -37.48288,17.79744 l -4.8004,0.77716 -0.7759,13.6437 c -0.42674,7.50402 -1.67944,19.04369 -2.78377,25.64369 -1.10435,6.6 -2.71585,16.44158 -3.58116,21.87016 -0.86531,5.4286 -3.90241,18.19187 -6.74915,28.36284 -2.84673,10.17096 -5.17588,20.50395 -5.17588,22.9622 0,6.0136 3.0495,14.27616 7.8373,21.23498 l 3.94524,5.73421 13.52886,2.36788 c 26.15259,4.57735 37.14538,10.116 58.17862,29.31295 7.13805,6.51487 15.42291,12.91284 18.4108,14.21771 8.48556,3.70582 25.12347,5.81137 44.76585,5.66518 17.75063,-0.13213 27.84938,-1.32605 93.33334,-11.03449 47.81677,-7.08916 98.13342,-8.43041 127.00099,-3.38537 16.70127,2.91878 36.88752,10.03372 62.85616,22.15454 43.80199,20.44451 56.85639,31.91903 65.34119,57.43344 8.49455,25.54371 4.36799,45.45021 -13.14176,63.39578 l -8.11087,8.31275 0.026,17.69762 c 0.0143,9.7337 -0.50965,31.19763 -1.16428,47.69763 l -1.19024,30 4.27391,10.66667 c 5.87571,14.66437 14.98035,28.94836 25.36716,39.79776 9.90705,10.34828 16.67144,14.75587 28.10957,18.31582 11.48623,3.5749 15.62015,6.04476 18.25894,10.909 2.6784,4.93724 2.75057,11.74814 0.49076,46.31076 -2.52105,38.55793 -1.43304,133.40257 1.86604,162.66667 l 0.6764,6 -6.94755,3.3333 c -3.82114,1.8334 -8.13439,4.9802 -9.58499,6.9929 -2.33782,3.2438 -2.48877,4.5584 -1.32876,11.5725 0.71976,4.3521 0.83452,7.6199 0.25502,7.2618 -0.57954,-0.3582 -1.05368,1.7842 -1.05368,4.7608 V 1096 h -27.3558 -27.35579 l 3.2134,-6.3333 c 3.54103,-6.979 12.55141,-19.4607 19.89144,-27.5547 5.13748,-5.6651 7.60675,-13.0708 7.60675,-22.8136 0,-3.7946 1.57957,-10.1323 4.08448,-16.388 l 4.08448,-10.2005 -1.44884,-30.0216 c -2.84403,-58.93101 -4.13738,-67.36865 -12.89575,-84.13039 -4.65585,-8.91036 -15.14937,-20.7838 -15.16728,-17.16182 -0.005,1.0655 -7.69419,17.23727 -17.08648,35.93727 -26.85028,53.45874 -34.16433,78.58358 -34.2108,117.51904 l -0.0265,22.1857 -8.29166,0.048 c -14.43496,0.083 -20.13505,6.0931 -22.99679,24.2476 -0.86697,5.5 -1.87218,11.05 -2.23378,12.3334 -0.59936,2.1271 -3.12751,2.3333 -28.60187,2.3333 h -27.94439 l 2.22695,-4.3333 c 4.27937,-8.3271 13.06285,-20.3967 20.61925,-28.3334 12.42707,-13.0525 39.34059,-63.90747 47.6299,-89.99998 7.64896,-24.07682 10.91549,-46.0828 10.88549,-73.33333 -0.0227,-20.54619 -0.8832,-22.72562 -17.04176,-43.15791 -6.45565,-8.16311 -18.08347,-22.94205 -25.83953,-32.84206 -7.75607,-9.9 -22.34018,-26.7 -32.40915,-37.33333 -20.72905,-21.89093 -31.01328,-34.99247 -39.25385,-50.0072 l -5.6912,-10.36965 -11.52878,0.77016 c -19.00477,1.26958 -34.77924,7.39558 -67.36865,26.16258 -14.97678,8.62456 -27.92458,15.27644 -32.49347,16.69342 -2.84468,0.88222 -3,0.57292 -3,-5.97451 v -6.90491 l -4.33333,0.77978 c -20.80373,3.7436 -60.91362,5.23058 -84.00001,3.1141 l -11.66666,-1.06954 v 11.10453 c 0,14.83996 -2.0543,30.38575 -6.04496,45.74497 -2.68802,10.34559 -3.29038,15.87867 -3.29931,30.30627 -0.0183,29.53219 -3.25091,49.59662 -9.22219,57.24123 -2.16226,2.7682 -2.48832,7.53773 -3.26377,47.74211 -0.47384,24.56667 -1.23273,54.94067 -1.68643,67.49777 l -0.8249,22.8311 -7.22543,0.7457 c -8.4611,0.8733 -17.56256,5.7548 -22.29296,11.9566 -6.43994,8.4432 -8.80672,16.2582 -8.80672,29.0794 V 1096 h -34 c -18.7,0 -34,-0.5014 -34,-1.1142 0,-2.2111 21.17425,-26.4204 29.50592,-33.7352 6.87236,-6.0336 10.62754,-11.0695 19.37597,-25.984 23.34808,-39.80426 24.77309,-44.52116 27.6638,-91.56905 1.64145,-26.71562 1.60273,-28.53187 -0.70659,-33.14971 -4.52672,-9.05193 -5.63324,-17.65287 -6.40437,-49.78115 l -0.76807,-32 -2.28545,9.33334 c -1.25701,5.13333 -3.52965,15.93333 -5.05032,24 -3.46461,18.37866 -5.69744,25.28677 -10.7464,33.24817 -2.19796,3.46581 -8.17385,18.06763 -13.27977,32.44847 -16.13202,45.43585 -22.65283,71.06337 -25.61164,100.65673 -1.52008,15.2034 -1.68728,15.7604 -4.9664,16.5472 -9.98156,2.3951 -23.30968,11.2464 -29.3957,19.5222 -3.79977,5.1668 -3.99765,6.0829 -3.99765,18.5066 V 1096 H 140 c -16.13333,0 -29.33333,-0.4645 -29.33333,-1.0322 z"
       id="path445" />
    <path
       id="path479"
       style="fill:#c87137;stroke-width:1.33333"
       d="M 140.95959 1058.6681 L 134.44396 1067.0002 C 128.31155 1074.8415 120.0006 1087.977 120.0006 1089.8283 C 120.0006 1090.289 129.55012 1090.6662 141.22326 1090.6662 L 162.44787 1090.6662 L 162.89123 1081.1818 C 163.39444 1070.4025 163.62264 1070.7021 148.8131 1062.8381 L 140.95959 1058.6681 z M 236.39513 1061.3342 C 234.23152 1061.3342 213.61222 1080.7338 209.11584 1087.0002 L 206.48498 1090.6662 L 231.9088 1090.6662 L 257.33263 1090.6662 L 257.33263 1083.5236 L 257.33263 1076.3791 L 247.89123 1068.8556 C 242.69796 1064.7181 237.5248 1061.3342 236.39513 1061.3342 z M 611.39123 1064.0002 C 608.54884 1064.0002 596.37386 1078.3295 590.14904 1089.0002 C 589.38859 1090.3038 593.69461 1090.6662 609.92052 1090.6662 C 621.33046 1090.6662 630.69328 1090.2162 630.72521 1089.6662 C 630.75721 1089.1162 631.2784 1086.1068 631.88341 1082.9787 L 632.98302 1077.2912 L 623.04552 1070.6467 C 617.58046 1066.9915 612.33639 1064.0002 611.39123 1064.0002 z M 736.48888 1068.1838 L 731.19396 1075.092 C 725.50536 1082.5139 721.33263 1088.8011 721.33263 1089.9533 C 721.33263 1090.3458 730.33264 1090.6662 741.33263 1090.6662 L 761.33263 1090.6662 L 761.33263 1086.2775 C 761.33263 1082.2942 760.56254 1081.4435 753.0006 1077.0842 C 748.41728 1074.442 742.82591 1071.3589 740.57677 1070.2326 L 736.48888 1068.1838 z " />
    <path
       id="path481"
       style="fill:#800000;stroke-width:1.33333"
       d="M 172.32482 291.06658 C 163.60678 291.60519 153.86079 294.4695 144.99474 299.23455 C 131.08985 306.70778 120.56118 309.96289 101.64709 312.63885 C 83.279787 315.23743 65.97391 320.12404 55.649038 325.62713 C 46.810746 330.3379 47.109941 332.05743 56.922476 332.97674 C 62.250102 333.47587 64.200805 332.98468 68.467398 330.07049 C 72.53989 327.28914 73.996622 326.89099 75.502554 328.1408 C 77.129992 329.49145 77.063739 330.08955 75.03771 332.3283 C 69.239519 338.73525 55.993105 340.80048 47.817007 336.57244 C 44.052973 334.62602 43.635013 334.64831 41.924429 336.90447 C 39.643183 339.91336 38.306414 346.32777 38.891226 351.45526 L 39.332632 355.33416 L 50.666617 354.66619 C 66.901196 353.71121 82.698898 354.16529 84.16271 355.62908 C 84.854454 356.32082 85.09674 357.73823 84.69982 358.77752 C 84.128652 360.27305 81.268698 360.5752 70.988882 360.22479 C 63.845117 359.98127 54.222219 360.18136 49.60607 360.6701 L 41.213492 361.55877 L 43.877554 365.7658 C 49.628899 374.84942 58.06095 376.35649 71.326773 370.6701 C 74.752283 369.20174 80.369642 368.00018 83.811148 368.00018 C 89.870882 368.00018 90.152719 368.17846 92.701773 373.66619 C 96.051252 380.87716 103.76252 385.59137 124.92638 393.36541 C 152.18228 403.37723 172.53128 402.12152 191.82677 389.23651 C 196.822 385.90081 202.42613 380.50366 206.23498 375.3576 C 211.55602 368.1684 212.80955 367.15029 214.80529 368.39666 C 217.00464 369.77017 216.97398 370.09689 214.30138 373.92791 C 204.45654 388.04012 193.7676 396.76191 180.28771 401.68182 C 169.63367 405.57031 147.19915 406.45289 136.68615 403.39666 C 132.48448 402.17521 128.91398 401.36134 128.7506 401.58807 C 128.58722 401.81481 127.72666 405.36909 126.83849 409.48651 C 124.6007 419.86044 117.78085 433.17574 107.45373 447.33416 C 92.345508 468.04744 82.666617 491.67023 82.666617 507.83416 L 82.666617 513.90838 L 89.932242 506.73455 C 96.232532 500.51253 97.480384 499.79531 99.334585 501.33416 C 101.23921 502.91487 100.70061 503.89086 94.402945 510.26776 L 87.332632 517.42596 L 87.391226 537.71307 C 87.482396 570.1893 94.994276 597.3289 112.2838 627.64471 L 117.7838 637.28924 L 121.1588 632.31072 C 126.6255 624.24523 136.36968 612.65684 137.5631 612.80096 C 140.7991 613.19175 141.33263 613.43096 141.33263 614.49627 C 141.33263 615.13614 138.27449 619.48744 134.53576 624.16424 C 124.34535 636.91135 124.40775 635.46783 133.47326 648.82049 C 143.67924 663.85298 155.72334 676.11049 165.23498 681.14471 C 172.46139 684.96943 186.61673 689.8274 187.61779 688.82635 C 187.89122 688.55292 188.65614 681.80627 189.31701 673.83221 C 189.97786 665.85816 192.3514 648.66734 194.5924 635.63104 C 196.8334 622.5947 198.66662 607.74464 198.66662 602.63104 C 198.66662 593.57962 198.75631 593.33416 202.03185 593.33416 L 205.39513 593.33416 L 204.55529 604.33416 C 204.09327 610.38416 201.91168 625.83291 199.70568 638.66619 C 197.17058 653.41402 195.47454 668.62329 195.0963 680.00018 L 194.49669 698.00018 L 201.55334 707.33416 C 211.10751 719.97247 228.20999 736.93482 238.26037 743.74041 C 242.80343 746.81675 247.10616 749.33416 247.82287 749.33416 C 248.53956 749.33416 249.84643 747.08416 250.72716 744.33416 C 251.60789 741.58416 255.53006 732.54833 259.44201 724.25604 C 265.96066 710.43813 266.77605 709.29677 269.19982 710.59393 C 271.72882 711.94741 271.48275 712.75407 263.58849 729.00604 L 255.33263 746.00018 L 255.57482 761.33416 C 256.00886 788.95708 261.01552 814.91617 267.36584 822.46307 C 270.64453 826.35957 270.66772 826.56722 270.69396 854.19158 C 270.72406 885.98937 272.04581 897.8857 276.59826 907.33416 L 279.80919 914.00018 L 277.99279 944.00018 C 275.21918 989.7877 272.41579 999.43736 251.74084 1034.3674 C 244.77075 1046.1433 240.13279 1055.316 240.81505 1055.9767 C 243.35691 1058.4381 257.84248 1069.333 258.56701 1069.3283 C 258.98884 1069.3283 260.43519 1066.644 261.78185 1063.3693 C 265.95251 1053.2273 272.49614 1045.9587 281.51623 1041.4513 C 286.04968 1039.1862 291.38621 1037.3342 293.3756 1037.3342 L 296.99279 1037.3342 L 297.81505 1011.0002 C 300.1157 937.30667 300.31537 911.30228 298.56505 912.97674 C 297.36785 914.12208 296.51466 922.2015 295.7506 939.64276 C 295.14766 953.40558 294.20737 969.46753 293.66076 975.33416 C 292.74738 985.137 292.41564 986.03631 289.56896 986.43963 C 286.64244 986.85425 286.51334 986.55909 287.23302 981.10565 C 288.6003 970.74481 290.66682 939.70067 290.67443 929.40057 C 290.68513 915.08291 292.34317 910.32356 299.30919 904.61541 C 308.77636 896.8578 311.92816 882.19668 311.97716 845.68377 C 311.99666 831.20815 312.60149 825.71923 315.3424 815.1701 C 319.87463 797.72643 321.72263 780.51973 321.08263 761.71893 C 320.57047 746.6737 320.33687 745.59997 315.64513 736.66619 C 312.94928 731.53289 309.69508 725.69574 308.41271 723.69354 C 306.5072 720.71837 306.39686 719.74308 307.80724 718.35955 C 309.20767 716.98579 310.14177 717.42029 312.76427 720.66619 C 318.04066 727.19682 325.81983 742.93478 326.60412 748.66619 C 327.33235 753.98795 327.34919 754.00209 334.66662 755.07049 C 354.27912 757.93405 406.21994 755.79642 428.33263 751.21502 C 431.91909 750.47196 432.0006 750.59141 432.0006 756.7033 C 432.0006 762.10142 432.31688 762.83237 434.33263 762.07049 C 435.61596 761.58543 447.20287 755.24176 460.08068 747.97479 C 494.44571 728.58247 513.53041 721.33416 530.21349 721.33416 C 538.7188 721.33416 538.81474 720.93096 533.55529 707.33416 L 529.94591 698.00018 L 518.30529 694.20916 C 510.83012 691.77411 506.66662 689.7314 506.66662 688.50018 C 506.66662 685.15473 509.69053 685.2797 521.93029 689.13104 L 533.85998 692.88494 L 539.3424 706.77557 C 551.55539 737.72444 560.59315 751.60186 586.20568 778.72479 C 606.09546 799.78749 613.87108 808.81041 628.66857 828.00018 C 635.17159 836.43348 644.82245 848.73419 650.11388 855.33416 C 665.35186 874.34037 665.92404 875.86499 666.42638 898.80487 C 667.51615 948.57187 657.33759 982.88314 623.68029 1042.8986 L 614.95177 1058.4631 L 623.80919 1064.4787 C 628.68086 1067.7877 633.10224 1070.5332 633.63341 1070.5803 C 634.16459 1070.6273 635.5831 1068.7175 636.78771 1066.3342 C 641.44973 1057.1104 647.3108 1052.8661 657.5006 1051.3381 L 663.63341 1050.4181 L 664.39513 1028.8752 C 665.72613 991.2087 674.55742 962.37784 699.78771 913.33416 C 706.01246 901.23419 712.30598 888.93348 713.77209 886.00018 C 717.31667 878.90827 717.53436 866.17258 714.20568 860.66619 C 712.87576 858.46622 708.98622 854.74301 705.56115 852.3908 C 702.13605 850.03858 696.22182 844.93791 692.41857 841.05682 C 685.92015 834.42534 684.88425 832.35284 675.22716 806.66619 C 669.57528 791.63292 664.08242 776.93349 663.02209 774.00018 C 661.79716 770.61164 661.26497 765.23008 661.56115 759.24237 C 661.98704 750.63208 662.90267 748.04094 672.17052 729.24237 C 684.06802 705.10992 698.16619 669.34123 696.2506 668.14862 C 695.4916 667.67607 694.9101 658.88251 694.86779 647.25408 C 694.78049 623.25769 692.42937 609.83728 685.98302 596.5451 C 681.73705 587.78998 673.04266 577.89732 666.17052 574.00018 C 664.63568 573.12976 664.13213 571.85739 664.71935 570.33416 C 665.94223 567.16216 666.37507 567.28888 673.9674 573.03924 C 692.4527 587.03988 700.25546 608.56059 700.53576 646.32635 C 700.60786 656.0395 701.16179 663.99083 701.76623 663.99432 C 702.37067 663.99832 706.42849 660.60174 710.7838 656.44744 C 720.11296 647.54893 727.2177 634.47555 728.55919 623.73846 C 730.61108 607.31574 721.57578 582.966 708.62365 570.01385 C 699.88138 561.27156 689.56531 555.15329 661.29552 541.94158 C 620.21644 522.74353 602.61065 518.48505 562.66662 518.08612 C 527.46507 517.73454 509.76414 519.08099 466.66662 525.3869 C 402.71009 534.7448 399.75904 535.07266 379.33263 535.09979 C 356.7614 535.12979 338.30785 532.28676 330.66662 527.60174 C 328.09995 526.02806 320.95459 519.99845 314.78771 514.2033 C 300.51189 500.78812 290.14744 494.11609 277.4381 490.15838 C 265.54363 486.45445 246.22311 483.29254 243.97521 484.68182 C 241.08522 486.46792 232.01794 501.674 229.14513 509.55291 C 226.99401 515.45258 225.67268 517.33416 223.67638 517.33416 C 221.47919 517.33416 221.19087 516.72649 221.92834 513.66619 C 223.41605 507.49245 230.46823 493.26082 235.53576 486.20721 C 239.784 480.29392 240.14105 479.20001 238.61584 476.75994 C 228.90089 461.21803 227.58688 452.0772 232.57287 434.74627 C 234.53295 427.93309 235.8903 422.11253 235.59044 421.81268 C 235.29059 421.51282 231.90947 426.04511 228.07677 431.88299 C 223.41456 438.98441 220.48423 442.25629 219.2213 441.77166 C 216.14957 440.59292 216.92716 438.61229 225.41271 426.00018 C 238.08458 407.16596 241.25094 400.07014 243.4674 385.53533 C 246.9437 362.7387 247.91758 354.16529 247.95959 345.97869 L 248.0006 337.95916 L 241.56701 335.67401 C 235.62824 333.56475 225.33263 325.36503 225.33263 322.74432 C 225.33263 322.12475 226.31908 321.23991 227.52404 320.77752 C 228.974 320.22112 231.28818 321.51041 234.36779 324.59002 C 240.38532 330.60757 246.12479 332.40655 257.29162 331.77557 C 264.62278 331.36131 268.49354 330.19686 277.69201 325.63885 C 289.3583 319.858 297.8315 312.23545 297.05724 308.21502 C 296.17723 303.64556 289.50959 302.00447 272.66662 302.21502 C 263.86665 302.32502 252.80942 303.05519 248.09435 303.83807 C 241.68954 304.90152 239.0445 304.86757 237.63927 303.70135 C 236.04046 302.37445 236.11634 301.87887 238.13537 300.40252 C 239.44175 299.44728 241.89532 298.66619 243.58849 298.66619 C 245.28166 298.66619 246.66662 298.0675 246.66662 297.33416 C 246.66662 296.60083 246.1626 296.00018 245.54552 296.00018 C 241.69257 296.00018 185.0225 291.91315 180.62951 291.31854 C 178.02259 290.96568 175.23084 290.88705 172.32482 291.06658 z M 165.24669 308.61346 C 166.958 308.58377 168.77325 308.74708 170.72521 309.09002 C 176.42817 310.092 176.6586 310.31196 176.44982 314.59197 C 176.1264 321.22288 172.00645 329.26255 167.82287 331.42596 C 163.11234 333.86187 159.44049 333.74498 152.14709 330.92791 C 143.50534 327.59004 142.89087 324.30246 149.50255 316.79119 C 154.35937 311.27355 159.13489 308.7195 165.24669 308.61346 z M 701.66662 676.20526 C 701.43051 676.25669 701.33263 676.61659 701.33263 677.29315 C 701.33263 680.93319 686.16264 717.07307 677.54552 733.96112 C 669.82191 749.098 668.65969 752.34276 668.23888 759.96112 C 667.94045 765.36379 668.48831 770.68994 669.68224 774.00018 C 670.74023 776.93349 676.04438 791.0256 681.46935 805.31658 C 690.96883 830.34098 691.61377 831.58202 698.95373 838.93768 C 703.14542 843.13834 708.92404 848.05787 711.79357 849.86932 C 718.08037 853.838 722.23914 860.18787 723.43029 867.6369 C 724.05468 871.54152 726.23442 875.41441 730.90099 880.90838 C 739.42838 890.94772 747.40206 907.38294 749.86779 920.00018 C 751.99028 930.86096 754.55971 969.95854 755.03576 998.66619 C 755.30814 1015.0917 755.05474 1017.3084 752.14318 1024.0002 C 750.25024 1028.3508 748.48255 1035.9315 747.79748 1042.6388 C 747.14086 1049.0678 745.49904 1056.2588 743.99084 1059.3068 C 742.53202 1062.2551 741.78575 1064.8252 742.33459 1065.0178 C 742.88341 1065.2104 746.93266 1067.4202 751.33263 1069.9299 C 755.73263 1072.4395 759.71583 1074.5326 760.18419 1074.5803 C 760.65257 1074.6283 761.42743 1072.5843 761.9049 1070.0392 C 763.02548 1064.066 767.83739 1058.4135 774.27209 1055.5119 L 779.37951 1053.2092 L 778.16271 1038.9377 C 776.34057 1017.5615 776.43586 887.80204 778.28771 868.43182 C 780.5972 844.27552 779.13502 841.03607 763.89318 836.51385 C 759.91809 835.33445 753.84092 832.93847 750.38732 831.18963 C 735.48095 823.64135 715.83157 799.62388 706.49669 777.54315 C 700.9955 764.53056 700.31944 752.59523 702.64904 709.56658 C 703.89627 686.53011 703.94368 678.07802 702.83263 676.96697 C 702.27713 676.41147 701.90272 676.15382 701.66662 676.20526 z M 218.89318 736.15447 L 218.30724 777.74432 C 217.64703 824.56874 217.09528 828.25641 207.67834 848.66619 L 202.14123 860.66619 L 201.56701 880.5119 C 201.17617 894.02883 201.54397 902.6546 202.7213 907.56268 C 204.3419 914.31806 204.13791 916.28726 199.44201 939.05096 C 189.15139 988.93522 175.8758 1019.4977 153.60216 1044.5842 C 149.08501 1049.6719 145.64241 1054.0873 145.95177 1054.3967 C 146.93378 1055.3787 163.29627 1065.0724 164.19591 1065.2053 C 164.67006 1065.2753 169.17009 1061.249 174.19591 1056.256 C 180.85846 1049.6371 185.73122 1046.1429 192.18419 1043.3576 L 201.0338 1039.5373 L 201.91662 1030.1017 C 204.45711 1002.9193 211.29233 975.16364 225.89123 932.75604 C 231.42804 916.67237 235.72901 903.28326 235.44787 903.00213 C 233.72791 901.28217 227.19174 914.03014 221.95373 929.32244 C 213.8121 953.09174 208.00607 968.00362 206.90294 967.97869 C 206.40627 967.96799 205.24591 967.48145 204.32482 966.89666 C 203.03039 966.07486 203.37629 964.03493 205.8463 957.91619 C 207.60394 953.56224 212.13584 941.00015 215.91662 930.00018 C 219.69737 919.00021 224.23796 907.79826 226.00841 905.1076 C 229.75972 899.40661 237.97619 892.74961 239.83849 893.90057 C 242.16925 895.34105 247.93306 880.91087 250.7174 866.66619 C 255.08282 844.33252 258.64173 828.80588 259.83263 826.90838 C 260.49105 825.85932 259.73106 821.8282 257.94591 816.90838 C 254.56377 807.58727 251.20343 787.9592 249.85607 769.64666 L 248.94787 757.29119 L 240.87755 752.3908 C 236.43946 749.69483 229.6788 744.93733 225.85216 741.82049 L 218.89318 736.15447 z M 305.49084 748.00018 C 308.29313 748.00018 308.31063 748.20305 307.6588 773.66619 C 306.75285 809.05617 303.5614 818.73512 291.24279 823.43963 C 283.29905 826.47338 281.33263 830.40598 281.33263 843.26776 C 281.33263 852.44506 281.09779 853.33416 278.66662 853.33416 C 276.21946 853.33416 276.0006 852.44491 276.0006 842.53533 C 276.0006 827.79475 278.23818 823.29861 287.65294 819.13494 C 293.69324 816.46367 295.24937 815.02196 297.44396 810.06072 C 300.94956 802.13577 302.57604 788.40978 302.6256 766.33416 C 302.6655 748.56081 302.75243 748.00018 305.49084 748.00018 z M 641.3424 816.00799 C 641.517 816.01145 641.63621 816.04859 641.68029 816.12322 C 641.85659 816.42176 644.34212 821.38248 647.20568 827.14666 C 653.76782 840.3559 664.37099 852.01805 673.31896 855.86737 L 680.0006 858.74041 L 680.0299 865.7033 C 680.071 875.45364 683.82287 882.99033 690.89513 887.52362 C 694.06935 889.55827 696.80764 891.28761 696.97912 891.36737 C 697.1506 891.44707 695.53294 895.67196 693.38537 900.75604 C 691.23779 905.84009 687.84561 915.85018 685.8463 923.00018 C 682.83283 933.7771 681.76506 936.00018 679.60216 936.00018 C 677.29417 936.00018 677.094 935.36851 677.86779 930.52947 C 678.34888 927.5209 681.07969 918.07088 683.93615 909.52947 L 689.12951 894.00018 L 684.39318 890.09393 C 678.49649 885.23181 674.73419 877.17693 674.69591 869.33026 C 674.66791 863.58104 674.41149 863.19458 668.6256 860.12518 C 659.53377 855.30197 648.06724 842.19848 641.60216 829.24432 C 636.1957 818.41129 636.08879 817.95643 638.67443 816.79119 C 639.78147 816.29229 640.81859 815.9976 641.3424 816.00799 z M 769.96349 852.15643 C 772.10928 852.13253 773.29236 855.24303 773.3131 861.08807 C 773.3339 866.94089 771.93463 870.82022 768.29943 874.98846 C 766.65743 876.87124 766.32717 880.96717 766.55724 896.65447 C 766.82589 914.97375 766.70478 916.00018 764.26818 916.00018 C 761.86805 916.00018 761.65044 914.63335 761.02794 895.66619 L 760.36193 875.33416 L 764.32873 870.78338 C 767.85705 866.73854 768.22735 865.50773 767.66662 859.67205 C 767.19036 854.71567 767.51464 852.92453 768.98693 852.35955 C 769.33222 852.22705 769.65695 852.15984 769.96349 852.15643 z " />
    <path
       style="display:inline;fill:#ffff00;stroke-width:1.33333"
       d="m 170.61976,324.08766 c 0.75914,-1.41845 1.38024,-4.11845 1.38024,-6 0,-3.28854 -0.30668,-3.42098 -7.9213,-3.42098 -4.35672,0 -8.29214,0.6 -8.74536,1.33333 -0.45323,0.73333 -0.0387,1.34252 0.9213,1.35375 3.08284,0.0361 5.497,2.31634 5.84806,5.52374 0.18796,1.71738 0.39174,3.27251 0.45286,3.45584 0.0611,0.18334 1.59,0.33334 3.39754,0.33334 1.88457,0 3.87517,-1.1001 4.66666,-2.57902 z"
       id="path493" />
    <path
       id="path501"
       style="fill:#ffcc00;stroke-width:1.33333"
       d="M 315.54943 28.343928 C 315.2768 28.460655 314.78725 29.044647 314.01818 30.000178 C 309.75522 35.296656 297.08585 57.482299 294.03185 64.998224 C 288.3961 78.867897 286.33513 92.238389 286.3756 114.66619 C 286.4165 137.38374 288.86751 156.95553 296.67834 196.94744 C 299.22631 209.99327 301.31458 222.59548 301.32091 224.9533 C 301.33621 230.65344 296.38348 236.13162 281.88927 246.44158 C 263.53813 259.49505 257.49958 257.80972 251.16857 237.87322 C 249.34898 232.14331 247.09785 220.82908 246.16662 212.72869 L 244.47326 198.00018 L 242.73107 209.91424 C 241.07142 221.26007 241.44285 244.9371 243.47912 257.57049 C 244.23346 262.25064 244.01942 262.60184 238.80529 265.2619 C 231.37672 269.05167 223.26055 269.90001 216.0006 267.64471 C 207.27223 264.93326 185.95799 251.30631 181.67834 245.70135 C 178.05856 240.96061 177.98941 240.50941 177.32677 217.44158 L 176.65294 194.00018 L 172.3756 203.0158 C 170.02277 207.97441 166.81417 216.07442 165.24669 221.0158 C 162.31698 230.25148 160.31371 251.75867 161.82287 257.77166 C 162.28522 259.61376 166.41459 265.30302 170.99865 270.41619 C 175.5827 275.52935 180.63851 281.27756 182.23302 283.18963 C 184.49051 285.89671 186.40794 286.695 190.89904 286.79705 C 194.0712 286.86915 206.86597 287.63987 219.33263 288.50799 C 231.79929 289.37611 242.9006 289.82135 244.0006 289.49822 C 245.1006 289.17509 254.10061 285.46312 264.0006 281.25018 C 273.90059 277.03722 289.20061 270.19666 298.0006 266.04901 C 306.80059 261.90135 318.96149 256.75636 325.02599 254.61541 C 339.84866 249.3826 351.94379 243.69342 377.69396 229.84002 C 418.71572 207.77063 438.3112 194.00714 456.7174 174.33416 C 483.67967 145.51625 492.69137 112.80676 484.58459 73.187678 C 482.24011 61.729855 473.99094 37.121167 472.86974 38.242365 C 471.39016 39.721944 471.91241 49.462429 474.14513 62.000178 C 479.13256 90.006787 475.20951 111.1288 461.67638 129.1408 C 454.50798 138.68165 444.10737 139.03139 436.17443 129.99627 C 430.53749 123.57616 422.76392 109.19118 419.72912 99.566584 C 416.77431 90.195754 416.23152 71.830991 418.56505 60.150568 C 419.35421 56.20048 420.0006 50.524174 420.0006 47.535334 C 420.0006 42.17355 419.91554 42.268577 413.66662 54.625178 L 407.33263 67.148615 L 407.42638 87.906428 C 407.51428 107.46525 407.80345 109.72545 412.42638 126.97869 C 420.38228 156.67093 419.41965 161.20267 401.41662 178.79901 C 384.95055 194.89308 346.41442 219.79051 334.56115 221.99237 C 327.00332 223.3963 322.71593 218.81042 316.83459 203.03338 C 304.22265 169.20109 298.65829 140.09023 298.67638 108.03533 C 298.68988 84.294507 301.14817 70.274359 308.48498 52.097834 C 311.86711 43.718773 314.97789 34.718761 315.39904 32.097834 C 315.85634 29.251948 316.00381 28.149381 315.54943 28.343928 z M 151.33263 78.000178 L 149.56896 84.000178 C 148.59871 87.300174 145.36403 95.100831 142.37951 101.33416 C 137.48968 111.54678 135.11967 114.4829 118.41662 131.03924 L 99.879507 149.41229 L 93.988882 145.18182 C 83.824893 137.88258 77.290492 126.01803 77.391226 115.04315 C 77.450256 108.61243 78.155917 106.25953 84.639273 90.879084 C 86.599239 86.229459 87.973792 82.196025 87.69396 81.916193 C 86.937822 81.160054 70.10704 105.11748 66.830679 111.61346 C 63.470249 118.27613 63.084405 129.06886 65.91857 137.10174 C 68.74318 145.10754 75.733306 155.2231 87.272085 168.00018 C 92.901311 174.2335 102.04605 185.33287 107.59435 192.66619 C 116.87294 204.9299 120.69061 211.80622 131.64904 236.00018 C 136.0834 245.79034 141.31504 252.54671 147.27599 256.18182 C 154.62058 260.66068 155.42358 259.87524 155.3756 248.25408 L 155.33263 237.84197 L 148.35802 230.0158 C 138.16114 218.5753 126.4263 194.77234 122.62951 177.83026 C 119.87822 165.5535 124.80332 150.44848 139.96349 124.66619 C 149.40847 108.60351 152.2677 99.472496 151.72912 87.107599 L 151.33263 78.000178 z M 116.60021 217.41229 C 115.94076 217.30658 116.13898 220.35129 116.10802 225.33416 C 115.94571 251.4623 126.56555 274.53556 143.1256 284.03338 C 150.94809 288.51987 150.21658 288.44705 165.28576 286.21697 L 176.57091 284.54705 L 167.97912 275.27362 C 161.58452 268.37263 158.01429 265.62884 154.02599 264.54901 C 140.54138 260.89805 134.15826 254.46315 125.7174 236.0119 C 119.71452 222.88995 117.44807 217.5482 116.60021 217.41229 z " />
  </g>
</svg>
